# xmcd CD database file
#
# Track frame offsets:
# 150
# 18772
# 41620
# 61035
# 80817
# 102125
# 118240
# 145802
# 165382
# 182847
# 208167
# 235427
# 258750
# 280522
# 305950
#
# Disc length: 4379 seconds
# Revision: 63
# Processed by: cddbd v1.5.2PL0 Copyright (c) Steve Scherf et al.
# Submitted via: MusicBin 0.4
#
DISCID=ce11190f
DTITLE=Bruce Springsteen - The Rising
DYEAR=2002
DGENRE=Rock
TTITLE0=Lonesome Day
TTITLE1=Into The Fire
TTITLE2=Waitin' On A Sunny Day
TTITLE3=Nothing Man
TTITLE4=Countin' On A Miracle
TTITLE5=Empty Sky
TTITLE6=Worlds Apart
TTITLE7=Let's Be Friends (Skin To Skin)
TTITLE8=Further On (Up The Road)
TTITLE9=The Fuse
TTITLE10=Mary's Place
TTITLE11=You're Missing
TTITLE12=The Rising
TTITLE13=Paradise
TTITLE14=My City Of Ruins
EXTD=LABEL =Bruce Springsteen\nID =ck86600\nUPC =69699-86600-21
EXTD=\nCOPYRIGHT =2002 YEAR: 2002
EXTT0=
EXTT1=
EXTT2=
EXTT3=
EXTT4=
EXTT5=
EXTT6=
EXTT7=
EXTT8=
EXTT9=
EXTT10=
EXTT11=
EXTT12=
EXTT13=
EXTT14=
PLAYORDER=
